<mxfile host="app.diagrams.net" modified="2023-10-09T19:55:37.361Z" agent="Mozilla/5.0 (Macintosh; Intel Mac OS X 10_15_7) AppleWebKit/537.36 (KHTML, like Gecko) Chrome/117.0.0.0 Safari/537.36" etag="YtUb6JnWKsytic4FBbaI" version="22.0.4" type="github">
  <diagram name="第 1 页" id="xYFwNltTrsMhyLlbu0Bo">
    <mxGraphModel dx="1360" dy="736" grid="1" gridSize="10" guides="1" tooltips="1" connect="1" arrows="1" fold="1" page="1" pageScale="1" pageWidth="827" pageHeight="1169" math="0" shadow="0">
      <root>
        <mxCell id="0" />
        <mxCell id="1" parent="0" />
        <mxCell id="AkkHUVoEzbaG2i2ELwZ9-1" value="" style="verticalLabelPosition=bottom;verticalAlign=top;html=1;shape=mxgraph.basic.donut;dx=18;" vertex="1" parent="1">
          <mxGeometry x="374" y="294" width="70" height="70" as="geometry" />
        </mxCell>
        <mxCell id="AkkHUVoEzbaG2i2ELwZ9-2" value="chain A" style="ellipse;whiteSpace=wrap;html=1;" vertex="1" parent="1">
          <mxGeometry x="220" y="420" width="60" height="40" as="geometry" />
        </mxCell>
        <mxCell id="AkkHUVoEzbaG2i2ELwZ9-3" value="chain B" style="ellipse;whiteSpace=wrap;html=1;" vertex="1" parent="1">
          <mxGeometry x="314" y="430" width="60" height="40" as="geometry" />
        </mxCell>
        <mxCell id="AkkHUVoEzbaG2i2ELwZ9-6" value="extractor 1" style="rounded=1;whiteSpace=wrap;html=1;" vertex="1" parent="1">
          <mxGeometry x="200" y="180" width="70" height="30" as="geometry" />
        </mxCell>
        <mxCell id="AkkHUVoEzbaG2i2ELwZ9-7" value="extractor 3" style="rounded=1;whiteSpace=wrap;html=1;" vertex="1" parent="1">
          <mxGeometry x="300" y="190" width="70" height="30" as="geometry" />
        </mxCell>
        <mxCell id="AkkHUVoEzbaG2i2ELwZ9-12" value="extractor 4" style="rounded=1;whiteSpace=wrap;html=1;" vertex="1" parent="1">
          <mxGeometry x="490" y="160" width="70" height="30" as="geometry" />
        </mxCell>
        <mxCell id="AkkHUVoEzbaG2i2ELwZ9-13" value="extractor 6" style="rounded=1;whiteSpace=wrap;html=1;" vertex="1" parent="1">
          <mxGeometry x="540" y="220" width="70" height="30" as="geometry" />
        </mxCell>
        <mxCell id="AkkHUVoEzbaG2i2ELwZ9-20" value="chain D" style="ellipse;whiteSpace=wrap;html=1;" vertex="1" parent="1">
          <mxGeometry x="530" y="430" width="60" height="40" as="geometry" />
        </mxCell>
        <mxCell id="AkkHUVoEzbaG2i2ELwZ9-21" value="chain C" style="ellipse;whiteSpace=wrap;html=1;" vertex="1" parent="1">
          <mxGeometry x="430" y="420" width="60" height="40" as="geometry" />
        </mxCell>
        <mxCell id="AkkHUVoEzbaG2i2ELwZ9-22" value="extractor 2" style="rounded=1;whiteSpace=wrap;html=1;" vertex="1" parent="1">
          <mxGeometry x="250" y="250" width="70" height="30" as="geometry" />
        </mxCell>
        <mxCell id="AkkHUVoEzbaG2i2ELwZ9-23" value="extractor 5" style="rounded=1;whiteSpace=wrap;html=1;" vertex="1" parent="1">
          <mxGeometry x="410" y="240" width="80" height="30" as="geometry" />
        </mxCell>
        <mxCell id="AkkHUVoEzbaG2i2ELwZ9-32" value="" style="endArrow=none;html=1;rounded=0;exitX=1;exitY=0;exitDx=0;exitDy=0;entryX=0.043;entryY=0.786;entryDx=0;entryDy=0;entryPerimeter=0;" edge="1" parent="1" source="AkkHUVoEzbaG2i2ELwZ9-2" target="AkkHUVoEzbaG2i2ELwZ9-1">
          <mxGeometry width="50" height="50" relative="1" as="geometry">
            <mxPoint x="390" y="350" as="sourcePoint" />
            <mxPoint x="440" y="300" as="targetPoint" />
          </mxGeometry>
        </mxCell>
        <mxCell id="AkkHUVoEzbaG2i2ELwZ9-33" value="" style="endArrow=none;html=1;rounded=0;exitX=0.5;exitY=0;exitDx=0;exitDy=0;entryX=0.243;entryY=0.986;entryDx=0;entryDy=0;entryPerimeter=0;" edge="1" parent="1" source="AkkHUVoEzbaG2i2ELwZ9-3" target="AkkHUVoEzbaG2i2ELwZ9-1">
          <mxGeometry width="50" height="50" relative="1" as="geometry">
            <mxPoint x="278" y="429" as="sourcePoint" />
            <mxPoint x="387" y="359" as="targetPoint" />
          </mxGeometry>
        </mxCell>
        <mxCell id="AkkHUVoEzbaG2i2ELwZ9-34" value="" style="endArrow=none;html=1;rounded=0;exitX=0;exitY=0;exitDx=0;exitDy=0;entryX=0.643;entryY=1.014;entryDx=0;entryDy=0;entryPerimeter=0;" edge="1" parent="1" source="AkkHUVoEzbaG2i2ELwZ9-21" target="AkkHUVoEzbaG2i2ELwZ9-1">
          <mxGeometry width="50" height="50" relative="1" as="geometry">
            <mxPoint x="281" y="436" as="sourcePoint" />
            <mxPoint x="387" y="359" as="targetPoint" />
          </mxGeometry>
        </mxCell>
        <mxCell id="AkkHUVoEzbaG2i2ELwZ9-35" value="" style="endArrow=none;html=1;rounded=0;exitX=0;exitY=0;exitDx=0;exitDy=0;entryX=0.786;entryY=0.9;entryDx=0;entryDy=0;entryPerimeter=0;" edge="1" parent="1" source="AkkHUVoEzbaG2i2ELwZ9-20" target="AkkHUVoEzbaG2i2ELwZ9-1">
          <mxGeometry width="50" height="50" relative="1" as="geometry">
            <mxPoint x="449" y="436" as="sourcePoint" />
            <mxPoint x="429" y="375" as="targetPoint" />
          </mxGeometry>
        </mxCell>
        <mxCell id="AkkHUVoEzbaG2i2ELwZ9-43" value="raw data" style="edgeLabel;html=1;align=center;verticalAlign=middle;resizable=0;points=[];" vertex="1" connectable="0" parent="AkkHUVoEzbaG2i2ELwZ9-35">
          <mxGeometry x="0.2467" y="-1" relative="1" as="geometry">
            <mxPoint as="offset" />
          </mxGeometry>
        </mxCell>
        <mxCell id="AkkHUVoEzbaG2i2ELwZ9-36" value="" style="endArrow=none;dashed=1;html=1;rounded=0;entryX=0.5;entryY=1;entryDx=0;entryDy=0;exitX=0.832;exitY=0.103;exitDx=0;exitDy=0;exitPerimeter=0;" edge="1" parent="1" source="AkkHUVoEzbaG2i2ELwZ9-1" target="AkkHUVoEzbaG2i2ELwZ9-23">
          <mxGeometry width="50" height="50" relative="1" as="geometry">
            <mxPoint x="390" y="350" as="sourcePoint" />
            <mxPoint x="440" y="300" as="targetPoint" />
          </mxGeometry>
        </mxCell>
        <mxCell id="AkkHUVoEzbaG2i2ELwZ9-37" value="" style="endArrow=none;dashed=1;html=1;rounded=0;entryX=0;entryY=1;entryDx=0;entryDy=0;exitX=1.026;exitY=0.432;exitDx=0;exitDy=0;exitPerimeter=0;" edge="1" parent="1" source="AkkHUVoEzbaG2i2ELwZ9-1" target="AkkHUVoEzbaG2i2ELwZ9-13">
          <mxGeometry width="50" height="50" relative="1" as="geometry">
            <mxPoint x="447" y="318" as="sourcePoint" />
            <mxPoint x="455" y="280" as="targetPoint" />
          </mxGeometry>
        </mxCell>
        <mxCell id="AkkHUVoEzbaG2i2ELwZ9-44" value="signature" style="edgeLabel;html=1;align=center;verticalAlign=middle;resizable=0;points=[];" vertex="1" connectable="0" parent="AkkHUVoEzbaG2i2ELwZ9-37">
          <mxGeometry x="-0.0774" y="-3" relative="1" as="geometry">
            <mxPoint as="offset" />
          </mxGeometry>
        </mxCell>
        <mxCell id="AkkHUVoEzbaG2i2ELwZ9-38" value="" style="endArrow=none;dashed=1;html=1;rounded=0;entryX=0.5;entryY=1;entryDx=0;entryDy=0;exitX=0.971;exitY=0.3;exitDx=0;exitDy=0;exitPerimeter=0;" edge="1" parent="1" source="AkkHUVoEzbaG2i2ELwZ9-1" target="AkkHUVoEzbaG2i2ELwZ9-12">
          <mxGeometry width="50" height="50" relative="1" as="geometry">
            <mxPoint x="451" y="351" as="sourcePoint" />
            <mxPoint x="550" y="260" as="targetPoint" />
          </mxGeometry>
        </mxCell>
        <mxCell id="AkkHUVoEzbaG2i2ELwZ9-39" value="" style="endArrow=none;dashed=1;html=1;rounded=0;entryX=0.75;entryY=1;entryDx=0;entryDy=0;exitX=0.014;exitY=0.527;exitDx=0;exitDy=0;exitPerimeter=0;" edge="1" parent="1" source="AkkHUVoEzbaG2i2ELwZ9-1" target="AkkHUVoEzbaG2i2ELwZ9-22">
          <mxGeometry width="50" height="50" relative="1" as="geometry">
            <mxPoint x="390" y="350" as="sourcePoint" />
            <mxPoint x="440" y="300" as="targetPoint" />
          </mxGeometry>
        </mxCell>
        <mxCell id="AkkHUVoEzbaG2i2ELwZ9-40" value="" style="endArrow=none;dashed=1;html=1;rounded=0;entryX=0.5;entryY=1;entryDx=0;entryDy=0;exitX=0.132;exitY=0.128;exitDx=0;exitDy=0;exitPerimeter=0;" edge="1" parent="1" source="AkkHUVoEzbaG2i2ELwZ9-1" target="AkkHUVoEzbaG2i2ELwZ9-7">
          <mxGeometry width="50" height="50" relative="1" as="geometry">
            <mxPoint x="383" y="329" as="sourcePoint" />
            <mxPoint x="315" y="290" as="targetPoint" />
          </mxGeometry>
        </mxCell>
        <mxCell id="AkkHUVoEzbaG2i2ELwZ9-41" value="" style="endArrow=none;dashed=1;html=1;rounded=0;entryX=0.5;entryY=1;entryDx=0;entryDy=0;exitX=0.049;exitY=0.252;exitDx=0;exitDy=0;exitPerimeter=0;" edge="1" parent="1" source="AkkHUVoEzbaG2i2ELwZ9-1" target="AkkHUVoEzbaG2i2ELwZ9-6">
          <mxGeometry width="50" height="50" relative="1" as="geometry">
            <mxPoint x="393" y="313" as="sourcePoint" />
            <mxPoint x="340" y="230" as="targetPoint" />
          </mxGeometry>
        </mxCell>
      </root>
    </mxGraphModel>
  </diagram>
</mxfile>
